<?xml version="1.0" encoding="utf-8"?>
<!-- Generator: Adobe Illustrator 16.0.0, SVG Export Plug-In . SVG Version: 6.00 Build 0)  -->
<!DOCTYPE svg PUBLIC "-//W3C//DTD SVG 1.1//EN" "http://www.w3.org/Graphics/SVG/1.1/DTD/svg11.dtd">
<svg version="1.1" id="Layer_1" xmlns="http://www.w3.org/2000/svg" xmlns:xlink="http://www.w3.org/1999/xlink" x="0px" y="0px"
	 width="175px" height="175px" viewBox="0 0 175 175" enable-background="new 0 0 175 175" xml:space="preserve">
<g>
	<g>
		<g>
			<path fill="#FFFFFF" d="M73.387,56.451c-12.45,0-22.58,10.131-22.58,22.581s10.13,22.581,22.58,22.581
				c12.451,0,22.581-10.131,22.581-22.581S85.838,56.451,73.387,56.451z M73.387,95.968c-9.34,0-16.936-7.596-16.936-16.936
				s7.596-16.936,16.936-16.936s16.936,7.596,16.936,16.936S82.727,95.968,73.387,95.968z"/>
			<path fill="#FFFFFF" d="M160.887,141.129h-36.693v-5.646h-5.645v11.291h-5.646V79.032c0-3.839-0.576-7.539-1.604-11.054
				l24.184-20.875V0h-28.226v35.336L94.398,45.621c-6.097-3.844-13.286-6.104-21.012-6.104c-7.725,0-14.914,2.261-21.011,6.107
				L39.517,35.336V0H11.29v47.104l23.907,20.639h-1.326C15.194,67.742,0,82.936,0,101.613v4.566l5.645,2.822v2.156L0,113.981v9.134
				l5.645,2.822v2.157L0,130.917v9.134l5.645,2.822v2.156L0,147.853v9.134l5.645,2.822v2.156L0,164.788V175h5.645v-6.724
				l5.646-2.822v-9.134l-5.646-2.822v-2.156l5.646-2.823v-9.134l-5.646-2.822v-2.157l5.646-2.822v-9.134l-5.646-2.822v-2.156
				l5.646-2.823v-9.134l-5.646-2.822v-1.078c0-15.564,12.663-28.227,28.227-28.227h0.451c-0.268,1.85-0.451,3.723-0.451,5.646v11.29
				c-6.227,0-11.29,5.064-11.29,11.291v1.078l-5.646,2.822v9.134l5.646,2.823v2.156l-5.646,2.822v9.134l5.646,2.822v2.157
				l-5.646,2.822v9.134l5.646,2.823v2.156l-5.646,2.822v9.134l5.646,2.822V175h5.645v-10.212l-5.645-2.823v-2.156l5.645-2.822
				v-9.134l-5.645-2.823v-2.156l5.645-2.822v-9.134l-5.645-2.822v-2.157l5.645-2.822v-9.134l-5.645-2.823v-2.156l5.645-2.822v-4.566
				c0-3.113,2.535-5.646,5.646-5.646V175h5.646V99.281c6.912,11.52,19.486,19.268,33.87,19.268c14.385,0,26.959-7.748,33.871-19.268
				v47.493H60.442l-3.127-3.125l-14.977,3.743v15.702l14.979,3.742l3.124-3.127h46.815V175h5.646v-11.29h5.646V175h5.645v-5.646
				h36.693c7.782,0,14.113-6.331,14.113-14.112C175,147.46,168.669,141.129,160.887,141.129z M112.903,5.645h16.936v5.646h-16.936
				V5.645z M111.071,39.517h7.478v-5.646h-5.646v-5.646h5.646V22.58h-5.646v-5.645h16.936v27.582l-20.673,17.848
				c-2.391-5.115-5.828-9.634-10.063-13.275L111.071,39.517z M16.936,5.645h16.936v5.646H16.936V5.645z M37.608,62.365
				L16.936,44.518V16.936h16.936v5.645h-5.646v5.646h5.646v5.646h-5.646v5.646h7.478l11.968,9.573
				C43.437,52.731,39.999,57.25,37.608,62.365z M73.387,112.903c-18.677,0-33.87-15.194-33.87-33.871s15.193-33.871,33.87-33.871
				c18.678,0,33.871,15.194,33.871,33.871S92.064,112.903,73.387,112.903z M118.549,158.064H58.105l-2.518,2.521l-7.604-1.902
				v-6.882l7.602-1.902l2.521,2.521h60.443V158.064z M163.71,163.19v-5.126h-5.646v5.646h-5.646v-5.646h-5.645v5.646h-5.646v-5.646
				h-5.646v5.646h-11.29v-5.646h5.646v-5.645h-5.646v-5.646h11.29v5.646h5.646v-5.646h5.646v5.646h5.645v-5.646h5.646v5.646h5.646
				v-5.127c3.276,1.169,5.645,4.273,5.645,7.949C169.354,158.917,166.986,162.021,163.71,163.19z"/>
			<path fill="#FFFFFF" d="M118.549,95.968c0,15.563,12.662,28.226,28.226,28.226S175,111.531,175,95.968
				s-12.662-28.226-28.226-28.226S118.549,80.404,118.549,95.968z M146.774,73.387c12.45,0,22.58,10.131,22.58,22.581
				s-10.13,22.581-22.58,22.581s-22.581-10.131-22.581-22.581S134.324,73.387,146.774,73.387z"/>
			<path fill="#FFFFFF" d="M146.774,112.903c9.34,0,16.936-7.596,16.936-16.936s-7.596-16.936-16.936-16.936
				s-16.936,7.596-16.936,16.936S137.435,112.903,146.774,112.903z M135.885,93.145c1.027-3.948,4.118-7.039,8.066-8.066v5.244
				h5.646v-5.244c3.949,1.027,7.04,4.118,8.067,8.066h-5.245v5.646h5.245c-1.027,3.949-4.118,7.04-8.067,8.067v-5.244h-5.646v5.244
				c-3.948-1.027-7.039-4.118-8.066-8.067h5.244v-5.646H135.885z"/>
		</g>
	</g>
</g>
</svg>
