<?xml version="1.0" encoding="utf-8"?>
<!-- Generator: Adobe Illustrator 16.0.0, SVG Export Plug-In . SVG Version: 6.00 Build 0)  -->
<!DOCTYPE svg PUBLIC "-//W3C//DTD SVG 1.1//EN" "http://www.w3.org/Graphics/SVG/1.1/DTD/svg11.dtd">
<svg version="1.1" id="Layer_1" xmlns="http://www.w3.org/2000/svg" xmlns:xlink="http://www.w3.org/1999/xlink" x="0px" y="0px"
	 width="199.611px" height="64.183px" viewBox="0 0 199.611 64.183" enable-background="new 0 0 199.611 64.183"
	 xml:space="preserve">
<g>
	<path fill="#0094D5" d="M52.071,38.545h-8.027l-5.196-10.054l-2.109,1.26v8.794h-7.14V12.244h7.14v11.427
		c0.365-0.709,1.089-1.829,2.178-3.367l5.524-8.06h7.771l-8.289,11.785L52.071,38.545z"/>
	<path fill="#0094D5" d="M198.838,28.439c0.743,0.178,1.161,0.28,1.161,0.28s-0.604-0.226-1.688-0.631
		c-0.402-0.271-0.958-0.658-1.665-1.158c-0.744-0.516-1.62-1.176-2.595-1.95c-0.984-0.771-2.033-1.697-3.13-2.746
		c-1.094-1.058-2.187-2.276-3.271-3.618c-1.08-1.347-2.094-2.865-3.143-4.467c-1.052-1.601-2.07-3.347-3.312-5.049
		c-1.234-1.707-2.678-3.387-4.353-4.825c-1.677-1.417-3.571-2.616-5.552-3.522c-2.165-1.051-4.88-0.947-6.891-0.038
		c-2.063,0.866-3.613,2.242-4.871,3.615c-1.28,1.373-2.277,2.798-3.111,4.156c-1.674,2.709-2.688,5.133-3.349,6.84
		c-0.106,0.284-0.201,0.54-0.292,0.787c-0.736,0.104-1.485,0.226-2.225,0.368c-3.018,0.538-6.073,1.341-9.067,2.462
		c-3.021,1.062-5.972,2.436-8.927,3.894c-5.88,2.993-11.559,6.711-17.061,10.784l-2.068,1.532l-2.023,1.592
		c-1.338,1.048-2.684,2.098-4.026,3.15c-1.352,1.083-2.659,2.025-3.997,3.033c-1.368,0.962-2.727,1.945-4.143,2.851
		c-5.581,3.708-11.542,6.792-17.649,9.165c-6.101,2.404-12.403,3.96-18.601,4.659c-6.196,0.723-12.28,0.622-17.976-0.174
		c-5.696-0.801-11.018-2.151-15.777-3.866c-2.373-0.858-4.622-1.769-6.73-2.716c-2.116-0.946-4.094-1.928-5.916-2.921
		c-3.636-1.986-6.712-3.903-9.164-5.616c-0.242-0.166-0.477-0.335-0.71-0.494l2.479-10.201l1.417-5.831
		c1.091-4.125,1.796-6.888,2.114-8.292c0.322-1.405,0.536-2.412,0.64-3.025l0,0l4.306,17.147h0.011l1.296,4.928h7.773l-8.69-26.408
		h-3.641h-2.144H8.585L0,38.545l0,0h0.003c0.006,0.007,0.566,0.658,1.698,1.799c1.071,1.079,2.655,2.622,4.788,4.412
		c0.125,0.105,0.244,0.209,0.37,0.313c2.331,1.919,5.237,4.18,8.806,6.439c2.278,1.442,4.809,2.924,7.594,4.335
		c1.578,0.795,3.233,1.57,4.974,2.298c4.824,2.021,10.257,3.819,16.211,4.874c5.94,1.062,12.377,1.481,18.979,0.915
		c6.598-0.577,13.345-2.073,19.87-4.466c6.52-2.403,12.813-5.656,18.694-9.476c1.486-0.937,2.911-1.948,4.355-2.947
		c1.406-1.046,2.892-2.088,4.188-3.158c1.337-1.064,2.664-2.127,3.994-3.187l1.96-1.567l1.999-1.511
		c5.313-4.001,10.756-7.621,16.241-10.663c2.764-1.467,5.521-2.845,8.31-3.916c1.385-0.582,2.792-1.013,4.163-1.506
		c1.398-0.4,2.766-0.854,4.155-1.129c1.373-0.354,2.753-0.551,4.107-0.777c1.365-0.146,2.707-0.313,4.039-0.343
		c2.656-0.084,5.239-0.02,7.715,0.316c4.949,0.636,9.435,1.953,13.391,3.2c3.966,1.311,7.427,2.458,10.274,3.4
		c2.861,0.938,5.161,1.533,6.719,1.942c0.37,0.089,0.692,0.167,0.979,0.235c0.275,0.111,0.422,0.171,0.422,0.171
		S198.945,28.511,198.838,28.439z M181.324,20.839c-1.112-0.462-2.289-0.924-3.502-1.379c0.046-0.067,0.1-0.124,0.144-0.19
		c0.17-0.233,0.301-0.495,0.439-0.741c0.109-0.26,0.23-0.509,0.311-0.747c0.088-0.24,0.158-0.458,0.229-0.667
		c0.07-0.195,0.142-0.4,0.223-0.529c0.091-0.148,0.143-0.24,0.143-0.24s-0.088-0.049-0.274-0.093
		c-0.183-0.049-0.458-0.036-0.751,0.071c-0.304,0.095-0.614,0.293-0.861,0.546c-0.271,0.241-0.457,0.558-0.632,0.873
		c-0.2,0.413-0.273,0.833-0.304,1.237c-0.489-0.178-0.96-0.357-1.466-0.531c-1.388-0.444-2.857-0.853-4.365-1.233
		c0.181-0.237,0.361-0.489,0.551-0.762c0.258-0.355,0.489-0.747,0.756-1.098c0.228-0.38,0.5-0.707,0.727-1.047
		c0.135-0.14,0.244-0.313,0.359-0.455c0.129-0.124,0.243-0.273,0.356-0.407c0.24-0.225,0.45-0.466,0.635-0.595
		c0.169-0.149,0.283-0.251,0.283-0.251s-0.128-0.049-0.372-0.095c-0.253-0.058-0.602-0.053-1.032,0.033
		c-0.42,0.098-0.89,0.309-1.32,0.626c-0.193,0.173-0.432,0.331-0.604,0.543c-0.172,0.209-0.367,0.413-0.519,0.64
		c-0.575,0.862-0.866,1.832-0.938,2.609c-0.612-0.143-1.203-0.3-1.833-0.424c-1.764-0.349-3.623-0.587-5.534-0.72
		c0.202-0.28,0.426-0.587,0.689-0.958c0.404-0.544,0.876-1.178,1.382-1.862c0.241-0.343,0.527-0.662,0.793-1.006
		c0.258-0.352,0.56-0.667,0.845-0.994c0.277-0.337,0.586-0.639,0.882-0.955c0.326-0.265,0.596-0.6,0.909-0.85
		c0.325-0.226,0.598-0.528,0.909-0.724c0.314-0.191,0.593-0.433,0.873-0.593c0.293-0.149,0.557-0.307,0.798-0.451
		c0.246-0.129,0.472-0.209,0.66-0.297c0.371-0.169,0.593-0.285,0.593-0.285s-0.23-0.035-0.655-0.066
		c-0.435-0.06-1.043-0.013-1.773,0.142c-0.37,0.072-0.74,0.227-1.147,0.375c-0.408,0.149-0.782,0.391-1.19,0.625
		c-0.396,0.254-0.778,0.54-1.159,0.852c-0.342,0.34-0.713,0.669-1.041,1.035c-0.625,0.751-1.209,1.536-1.623,2.341
		c-0.438,0.791-0.752,1.578-0.968,2.257c-0.172,0.526-0.283,0.991-0.351,1.369c-2.662-0.152-5.442-0.066-8.257,0.289
		c0.092-0.156,0.17-0.289,0.278-0.458c0.951-1.535,2.348-3.711,4.229-6.106c0.957-1.178,2.041-2.409,3.276-3.556
		c1.244-1.133,2.689-2.164,4.251-2.737c1.566-0.584,3.201-0.516,4.728,0.204c1.716,0.814,3.319,1.9,4.81,3.149
		c2.996,2.46,5.12,5.896,7.439,9.081c2.286,3.215,4.908,5.989,7.465,7.889c1.258,0.975,2.487,1.762,3.604,2.396
		c0.504,0.302,0.98,0.557,1.438,0.793c-1.056-0.44-2.252-0.947-3.591-1.528C188.517,23.977,185.217,22.448,181.324,20.839z"/>
	<g>
		<path fill="#1F140F" d="M69.77,50.775H55.303v-25.95H69.77v2.68H58.325v8.359h10.753v2.663H58.325v9.553H69.77V50.775z"/>
		<path fill="#1F140F" d="M88.392,50.775V38.191c0-1.586-0.36-2.771-1.082-3.552c-0.723-0.778-1.854-1.169-3.394-1.169
			c-2.033,0-3.522,0.55-4.469,1.648c-0.949,1.102-1.42,2.918-1.42,5.453v10.203h-2.947V31.322h2.396l0.477,2.665h0.142
			c0.603-0.959,1.449-1.703,2.542-2.229c1.088-0.527,2.299-0.791,3.634-0.791c2.347,0,4.106,0.562,5.293,1.695
			c1.181,1.129,1.775,2.937,1.775,5.426v12.688H88.392z"/>
		<path fill="#1F140F" d="M101.653,50.775l-7.382-19.454h3.157l4.191,11.541c0.948,2.697,1.502,4.446,1.667,5.254h0.144
			c0.129-0.629,0.54-1.925,1.237-3.898c0.687-1.97,2.238-6.267,4.655-12.896h3.16l-7.384,19.454H101.653z"/>
		<path fill="#1F140F" d="M115.358,26.051c0-0.678,0.167-1.172,0.497-1.482c0.331-0.315,0.746-0.471,1.243-0.471
			c0.475,0,0.883,0.16,1.222,0.48c0.348,0.317,0.516,0.809,0.516,1.474c0,0.66-0.168,1.156-0.516,1.482
			c-0.339,0.324-0.747,0.488-1.222,0.488c-0.497,0-0.912-0.164-1.243-0.488C115.525,27.207,115.358,26.711,115.358,26.051z
			 M118.552,50.775h-2.947V31.322h2.947V50.775z"/>
		<path fill="#1F140F" d="M133.855,51.129c-1.266,0-2.421-0.232-3.47-0.697c-1.051-0.467-1.929-1.188-2.639-2.16h-0.207
			c0.14,1.14,0.207,2.217,0.207,3.236v8.005h-2.944V31.322h2.393l0.41,2.665h0.142c0.763-1.065,1.641-1.836,2.647-2.312
			c1.008-0.475,2.158-0.708,3.461-0.708c2.582,0,4.57,0.882,5.973,2.642c1.401,1.767,2.104,4.239,2.104,7.422
			c0,3.196-0.715,5.679-2.14,7.447C138.368,50.249,136.388,51.129,133.855,51.129z M133.43,33.471c-1.987,0-3.427,0.55-4.313,1.648
			c-0.891,1.102-1.344,2.859-1.37,5.258v0.653c0,2.737,0.46,4.692,1.37,5.868c0.91,1.178,2.373,1.766,4.386,1.766
			c1.678,0,2.996-0.68,3.944-2.039c0.956-1.362,1.433-3.239,1.433-5.63c0-2.425-0.477-4.288-1.433-5.583
			C136.499,34.115,135.157,33.471,133.43,33.471z"/>
		<path fill="#1F140F" d="M149.852,31.322v12.621c0,1.586,0.356,2.77,1.083,3.551c0.723,0.778,1.852,1.171,3.385,1.171
			c2.037,0,3.525-0.552,4.467-1.668c0.942-1.112,1.416-2.93,1.416-5.449V31.322h2.944v19.454h-2.435l-0.426-2.61h-0.161
			c-0.601,0.959-1.437,1.693-2.508,2.206c-1.073,0.507-2.295,0.758-3.664,0.758c-2.37,0-4.145-0.561-5.319-1.683
			c-1.179-1.121-1.767-2.927-1.767-5.397V31.322H149.852z"/>
		<path fill="#1F140F" d="M178.272,30.967c0.867,0,1.638,0.071,2.327,0.211l-0.408,2.732c-0.807-0.173-1.517-0.262-2.131-0.262
			c-1.579,0-2.922,0.635-4.038,1.915c-1.12,1.279-1.678,2.872-1.678,4.776v10.436h-2.95V31.322h2.433l0.337,3.602h0.141
			c0.724-1.267,1.594-2.24,2.611-2.926C175.935,31.307,177.049,30.967,178.272,30.967z"/>
		<path fill="#1F140F" d="M192.454,51.129c-2.876,0-5.145-0.873-6.809-2.625c-1.662-1.747-2.493-4.185-2.493-7.294
			c0-3.137,0.773-5.629,2.316-7.473c1.547-1.849,3.621-2.771,6.224-2.771c2.437,0,4.366,0.802,5.787,2.405
			c1.425,1.603,2.132,3.717,2.132,6.348v1.862h-13.404c0.058,2.283,0.634,4.018,1.728,5.201c1.098,1.184,2.641,1.774,4.625,1.774
			c2.101,0,4.167-0.437,6.218-1.313v2.626c-1.045,0.448-2.026,0.774-2.96,0.97C194.891,51.031,193.768,51.129,192.454,51.129z
			 M191.657,33.436c-1.562,0-2.809,0.506-3.739,1.527c-0.928,1.015-1.476,2.424-1.641,4.221h10.174c0-1.855-0.418-3.277-1.245-4.27
			C194.377,33.929,193.197,33.436,191.657,33.436z"/>
	</g>
</g>
</svg>
