<?xml version="1.0" encoding="utf-8"?>
<!-- Generator: Adobe Illustrator 16.0.0, SVG Export Plug-In . SVG Version: 6.00 Build 0)  -->
<!DOCTYPE svg PUBLIC "-//W3C//DTD SVG 1.1//EN" "http://www.w3.org/Graphics/SVG/1.1/DTD/svg11.dtd">
<svg version="1.1" id="Layer_1" xmlns="http://www.w3.org/2000/svg" xmlns:xlink="http://www.w3.org/1999/xlink" x="0px" y="0px"
	 width="175px" height="175px" viewBox="0 0 175 175" enable-background="new 0 0 175 175" xml:space="preserve">
<g>
	<path fill="#FFFFFF" d="M56.497,89.138c-0.613-0.613-1.535-0.797-2.337-0.464c-0.801,0.331-1.323,1.113-1.323,1.979v38.045
		c0,1.184,0.96,2.144,2.144,2.144h38.045c0.867,0,1.648-0.522,1.98-1.323c0.331-0.802,0.147-1.724-0.465-2.337L56.497,89.138z
		 M57.125,126.555V95.828l30.725,30.727H57.125z"/>
	<path fill="#FFFFFF" d="M164.683,13.206L153.536,2.061c-0.837-0.838-2.194-0.838-3.031,0L86.088,66.477
		c-0.206,0.206-0.368,0.452-0.476,0.723l-7.062,17.729L50.139,56.516l5.099-5.099c0.837-0.837,0.837-2.194,0-3.031
		c-0.837-0.838-2.194-0.838-3.032,0l-5.099,5.099l-8.553-8.554V2.144C38.554,0.96,37.594,0,36.41,0H11.833
		c-1.184,0-2.144,0.96-2.144,2.144v170.713c0,1.184,0.96,2.144,2.144,2.144H36.41c1.184,0,2.144-0.96,2.144-2.144v-23.444h98.418
		l5.987,5.987c0.418,0.419,0.967,0.628,1.516,0.628s1.097-0.209,1.516-0.628c0.838-0.837,0.838-2.194,0-3.032L81.813,88.19
		l17.729-7.061c0.271-0.108,0.517-0.27,0.723-0.476l64.417-64.417c0.401-0.401,0.628-0.947,0.628-1.516
		S165.084,13.607,164.683,13.206z M34.266,170.713H13.977v-3.814h3.683c1.184,0,2.144-0.96,2.144-2.145
		c0-1.184-0.96-2.144-2.144-2.144h-3.683v-6.749h3.683c1.184,0,2.144-0.959,2.144-2.144c0-1.184-0.96-2.144-2.144-2.144h-3.683
		v-6.749h3.683c1.184,0,2.144-0.96,2.144-2.144s-0.96-2.144-2.144-2.144h-3.683v-6.749h3.683c1.184,0,2.144-0.96,2.144-2.144
		c0-1.185-0.96-2.144-2.144-2.144h-3.683v-6.749h3.683c1.184,0,2.144-0.96,2.144-2.144c0-1.185-0.96-2.145-2.144-2.145h-3.683
		v-6.749h3.683c1.184,0,2.144-0.959,2.144-2.144c0-1.184-0.96-2.144-2.144-2.144h-3.683v-6.749h3.683
		c1.184,0,2.144-0.959,2.144-2.144c0-1.184-0.96-2.144-2.144-2.144h-3.683v-6.749h3.683c1.184,0,2.144-0.959,2.144-2.144
		s-0.96-2.144-2.144-2.144h-3.683v-6.749h3.683c1.184,0,2.144-0.959,2.144-2.144s-0.96-2.144-2.144-2.144h-3.683v-6.749h3.683
		c1.184,0,2.144-0.96,2.144-2.144c0-1.185-0.96-2.144-2.144-2.144h-3.683v-6.749h3.683c1.184,0,2.144-0.96,2.144-2.145
		c0-1.184-0.96-2.143-2.144-2.143h-3.683v-6.75h3.683c1.184,0,2.144-0.959,2.144-2.144c0-1.184-0.96-2.144-2.144-2.144h-3.683
		v-6.749h3.683c1.184,0,2.144-0.96,2.144-2.144s-0.96-2.144-2.144-2.144h-3.683v-6.749h3.683c1.184,0,2.144-0.959,2.144-2.144
		s-0.96-2.144-2.144-2.144h-3.683V12.39h3.683c1.184,0,2.144-0.96,2.144-2.144c0-1.185-0.96-2.145-2.144-2.145h-3.683V4.287h20.289
		V170.713L34.266,170.713z M38.553,145.125V50.994l10.433,10.432l-6.099,6.1c-0.838,0.838-0.838,2.194,0,3.031
		c0.418,0.419,0.967,0.628,1.516,0.628s1.097-0.209,1.516-0.628l6.1-6.099l4.771,4.771l-6.099,6.1c-0.838,0.838-0.838,2.194,0,3.032
		c0.419,0.418,0.967,0.627,1.516,0.627s1.097-0.209,1.516-0.627l6.1-6.1l4.772,4.772l-6.1,6.099c-0.837,0.838-0.837,2.194,0,3.032
		c0.418,0.419,0.967,0.627,1.516,0.627s1.097-0.208,1.516-0.627l6.1-6.1l4.772,4.772l-6.1,6.1c-0.837,0.837-0.837,2.193,0,3.031
		c0.419,0.418,0.967,0.628,1.516,0.628s1.098-0.21,1.516-0.628l6.1-6.1l4.772,4.772l-6.1,6.099c-0.837,0.838-0.837,2.194,0,3.032
		c0.418,0.419,0.967,0.628,1.516,0.628s1.098-0.209,1.516-0.628l6.1-6.1l4.772,4.772l-6.1,6.1c-0.837,0.837-0.837,2.193,0,3.031
		c0.419,0.419,0.967,0.628,1.516,0.628c0.55,0,1.098-0.209,1.516-0.628l6.1-6.1l4.772,4.772l-6.1,6.1
		c-0.837,0.837-0.837,2.194,0,3.031c0.419,0.419,0.967,0.628,1.516,0.628s1.098-0.209,1.516-0.628l6.1-6.1l4.772,4.772l-6.099,6.1
		c-0.838,0.837-0.838,2.194,0,3.031c0.418,0.419,0.966,0.628,1.515,0.628s1.098-0.209,1.517-0.628l6.099-6.1l4.772,4.772l-6.1,6.1
		c-0.837,0.837-0.837,2.194,0,3.031c0.419,0.419,0.968,0.628,1.516,0.628c0.549,0,1.098-0.209,1.517-0.628l6.1-6.1l4.771,4.772
		l-6.099,6.1c-0.838,0.837-0.838,2.194,0,3.031c0.418,0.419,0.967,0.628,1.516,0.628s1.097-0.209,1.516-0.628l6.1-6.099
		l10.432,10.432L38.553,145.125L38.553,145.125z M96.208,73.565l53.304-53.304l2.541,2.541L98.75,76.106L96.208,73.565z
		 M93.177,70.533l-2.541-2.541l53.304-53.303l2.541,2.541L93.177,70.533z M88.391,71.811l6.54,6.541l-10.869,4.329L88.391,71.811z
		 M155.085,19.771l-8.114-8.114l5.05-5.05l8.114,8.114L155.085,19.771z"/>
	<path fill="#FFFFFF" d="M151.227,157.604c-0.837-0.837-2.194-0.837-3.031,0c-0.837,0.838-0.837,2.195,0,3.032l6.614,6.614
		c0.419,0.419,0.967,0.628,1.516,0.628s1.098-0.209,1.516-0.628c0.838-0.838,0.838-2.194,0-3.031L151.227,157.604z"/>
	<path fill="#FFFFFF" d="M163.077,169.454c-0.837-0.837-2.194-0.836-3.031,0.001c-0.837,0.838-0.837,2.195,0.001,3.032l0.135,0.135
		c0.419,0.418,0.967,0.627,1.516,0.627s1.098-0.21,1.517-0.628c0.837-0.838,0.836-2.195-0.002-3.031L163.077,169.454z"/>
	<path fill="#FFFFFF" d="M94.511,11.256c0.549,0,1.098-0.209,1.516-0.629l0.342-0.342c0.837-0.837,0.837-2.194-0.001-3.031
		c-0.837-0.837-2.193-0.837-3.031,0l-0.342,0.343c-0.837,0.837-0.837,2.194,0.001,3.031C93.414,11.047,93.962,11.256,94.511,11.256z
		"/>
	<path fill="#FFFFFF" d="M82.659,23.106c0.548,0,1.098-0.209,1.516-0.628l6.614-6.614c0.838-0.837,0.838-2.194,0-3.031
		c-0.837-0.837-2.194-0.838-3.031,0l-6.614,6.614c-0.837,0.837-0.837,2.194,0,3.031C81.562,22.897,82.111,23.106,82.659,23.106z"/>
	<path fill="#FFFFFF" d="M70.809,34.957c0.549,0,1.098-0.209,1.516-0.628l6.614-6.614c0.838-0.837,0.838-2.194,0-3.031
		c-0.837-0.837-2.194-0.837-3.031,0l-6.615,6.614c-0.837,0.837-0.837,2.194,0,3.031C69.712,34.748,70.26,34.957,70.809,34.957z"/>
	<path fill="#FFFFFF" d="M58.958,46.809c0.548,0,1.097-0.21,1.515-0.629l6.614-6.613c0.838-0.838,0.838-2.195,0-3.032
		c-0.837-0.837-2.194-0.837-3.031,0l-6.614,6.615c-0.837,0.837-0.837,2.194,0,3.031C57.86,46.6,58.409,46.809,58.958,46.809z"/>
</g>
</svg>
