<?xml version="1.0" encoding="utf-8"?>
<!-- Generator: Adobe Illustrator 16.0.0, SVG Export Plug-In . SVG Version: 6.00 Build 0)  -->
<!DOCTYPE svg PUBLIC "-//W3C//DTD SVG 1.1//EN" "http://www.w3.org/Graphics/SVG/1.1/DTD/svg11.dtd">
<svg version="1.1" id="Layer_1" xmlns="http://www.w3.org/2000/svg" xmlns:xlink="http://www.w3.org/1999/xlink" x="0px" y="0px"
	 width="175px" height="175px" viewBox="0 0 175 175" enable-background="new 0 0 175 175" xml:space="preserve">
<g>
	<g>
		<g>
			<path fill="#FFFFFF" d="M103.666,19.293c-4.041-5.942-7.607-11.41-10.936-16.402c-0.477-0.713-1.189-1.426-1.902-1.901
				c-2.852-1.902-6.656-0.951-8.559,1.901c-3.09,4.992-6.656,10.222-10.935,16.402C52.553,46.87,24.5,88.47,24.5,112.241
				c0,17.354,7.133,33.043,18.544,44.454C54.455,167.868,70.146,175,87.5,175s33.045-7.132,44.457-18.543
				c11.41-11.41,18.543-27.101,18.543-44.453C150.5,88.232,122.447,46.87,103.666,19.293z M123.397,147.899
				c-9.271,9.271-21.871,14.738-35.897,14.738c-14.026,0-26.626-5.704-35.898-14.738c-9.271-9.271-14.74-21.87-14.74-35.895
				c0-19.97,26.864-59.667,44.694-86.055c2.14-3.09,4.042-6.18,5.943-8.796c1.902,2.616,3.803,5.706,5.943,8.796
				c17.83,26.625,44.694,66.085,44.694,86.055C138.138,126.029,132.432,138.628,123.397,147.899z"/>
		</g>
	</g>
	<g>
		<g>
			<path fill="#FFFFFF" d="M124.35,107.726c-3.33-0.238-6.182,2.376-6.42,5.705c-0.236,5.229-1.901,10.222-4.517,14.501
				c-2.615,4.278-6.419,8.082-10.937,10.46c-2.852,1.663-4.041,5.467-2.376,8.318c1.901,3.329,5.704,4.279,8.558,2.616
				c6.419-3.565,11.648-8.797,15.215-14.738c3.805-5.944,5.943-13.075,6.181-20.444C130.292,110.814,127.678,107.962,124.35,107.726
				z"/>
		</g>
	</g>
</g>
</svg>
